<svg width="56" height="25" viewBox="0 0 56 25" fill="none" xmlns="http://www.w3.org/2000/svg">
<path d="M43.2156 0C39.8699 0 36.71 1.30111 34.4563 3.55483L27.881 9.38662L24.3494 12.5H24.3727L18.1227 18.053C16.6357 19.54 14.6608 20.3532 12.5465 20.3532C8.20167 20.3532 4.67007 16.8448 4.67007 12.5C4.67007 8.15521 8.20167 4.64684 12.5465 4.64684C14.6608 4.64684 16.6357 5.46004 18.2156 7.03996L20.8411 9.36338L24.3494 6.25L21.4219 3.671C19.052 1.30112 15.8922 0 12.5465 0C5.62268 0 0 5.62268 0 12.5C0 19.3773 5.62268 25 12.5465 25C15.8922 25 19.052 23.6989 21.3058 21.4452L27.881 15.6366L27.9043 15.6599L31.4126 12.5H31.3894L37.6394 6.94703C39.1264 5.46004 41.1013 4.64684 43.2156 4.64684C47.5604 4.64684 51.092 8.15521 51.092 12.5C51.092 16.8448 47.5604 20.3532 43.2156 20.3532C41.1245 20.3532 39.1264 19.54 37.5465 17.96L34.8978 15.6134L31.3894 18.7268L34.3402 21.329C36.71 23.6757 39.8467 24.9768 43.2156 24.9768C50.1394 24.9768 55.7621 19.3773 55.7621 12.4768C55.7621 5.57621 50.1394 0 43.2156 0Z" fill="black"/>
</svg>
