<svg width="25" height="23" viewBox="0 0 25 23" fill="none" xmlns="http://www.w3.org/2000/svg">
<g clip-path="url(#clip0_1_45)">
<path d="M12.5 0C18.3333 0 22.2222 1.52778 22.2222 3.47222V5.55556C22.9904 5.55556 23.6111 6.17622 23.6111 6.94444V9.72222C23.6111 10.4905 22.9904 11.1111 22.2222 11.1111V18.0556C22.2222 18.8238 21.6016 19.4444 20.8333 19.4444V20.8333C20.8333 21.6016 20.2127 22.2222 19.4444 22.2222H18.0556C17.2873 22.2222 16.6667 21.6016 16.6667 20.8333V19.4444H8.33333V20.8333C8.33333 21.6016 7.71267 22.2222 6.94444 22.2222H5.55555C4.78732 22.2222 4.16666 21.6016 4.16666 20.8333V19.4444C3.39974 19.4444 2.77777 18.8238 2.77777 18.0556V11.1111C2.01085 11.1111 1.38889 10.4905 1.38889 9.72222V6.94444C1.38889 6.17622 2.01085 5.55556 2.77777 5.55556V3.47222C2.77777 1.52778 6.66666 0 12.5 0ZM5.55555 11.1111C5.55555 11.8793 6.17621 12.5 6.94444 12.5H11.8056V5.55556H6.94444C6.17621 5.55556 5.55555 6.17622 5.55555 6.94444V11.1111ZM13.1944 12.5H18.0556C18.8238 12.5 19.4444 11.8793 19.4444 11.1111V6.94444C19.4444 6.17622 18.8238 5.55556 18.0556 5.55556H13.1944V12.5ZM6.25 17.3611C7.01823 17.3611 7.63889 16.7404 7.63889 15.9722C7.63889 15.204 7.01823 14.5833 6.25 14.5833C5.48177 14.5833 4.86111 15.204 4.86111 15.9722C4.86111 16.7404 5.48177 17.3611 6.25 17.3611ZM18.75 17.3611C19.5182 17.3611 20.1389 16.7404 20.1389 15.9722C20.1389 15.204 19.5182 14.5833 18.75 14.5833C17.9818 14.5833 17.3611 15.204 17.3611 15.9722C17.3611 16.7404 17.9818 17.3611 18.75 17.3611ZM15.9722 2.77778H9.02777C8.64583 2.77778 8.33333 3.08854 8.33333 3.47222C8.33333 3.8559 8.64583 4.16667 9.02777 4.16667H15.9722C16.3542 4.16667 16.6667 3.8559 16.6667 3.47222C16.6667 3.08854 16.3542 2.77778 15.9722 2.77778Z" fill="#616161"/>
</g>
<defs>
<clipPath id="clip0_1_45">
<rect width="25" height="22.2222" fill="white"/>
</clipPath>
</defs>
</svg>
