<svg width="25" height="25" viewBox="0 0 25 25" fill="none" xmlns="http://www.w3.org/2000/svg">
<g clip-path="url(#clip0_1_47)">
<path d="M14.0625 12.5C14.0625 13.3643 13.3643 14.0625 12.5 14.0625C11.6357 14.0625 10.9375 13.3643 10.9375 12.5C10.9375 11.6357 11.6357 10.9375 12.5 10.9375C13.3643 10.9375 14.0625 11.6357 14.0625 12.5ZM5.46875 12.5C5.46875 8.61816 8.61816 5.46875 12.5 5.46875C16.3818 5.46875 19.5312 8.61816 19.5312 12.5C19.5312 16.3818 16.3818 19.5312 12.5 19.5312C8.61816 19.5312 5.46875 16.3818 5.46875 12.5ZM12.5 16.4062C14.6582 16.4062 16.4062 14.6582 16.4062 12.5C16.4062 10.3418 14.6582 8.59375 12.5 8.59375C10.3418 8.59375 8.59375 10.3418 8.59375 12.5C8.59375 14.6582 10.3418 16.4062 12.5 16.4062ZM25 12.5C25 19.4043 19.4043 25 12.5 25C5.5957 25 0 19.4043 0 12.5C0 5.5957 5.5957 0 12.5 0C19.4043 0 25 5.5957 25 12.5ZM12.5 3.125C7.28027 3.125 3.125 7.28027 3.125 12.5C3.125 17.6758 7.28027 21.875 12.5 21.875C17.6758 21.875 21.875 17.6758 21.875 12.5C21.875 7.28027 17.6758 3.125 12.5 3.125Z" fill="#616161"/>
</g>
<defs>
<clipPath id="clip0_1_47">
<rect width="25" height="25" fill="white"/>
</clipPath>
</defs>
</svg>
